<svg xmlns="http://www.w3.org/2000/svg" width="56.805" height="48.5" viewBox="0 0 56.805 48.5"><defs><style>.a{fill:#414141;}</style></defs><g transform="translate(-11478.25 1598)"><path class="a" d="M61.729,13.5H9.575A2.325,2.325,0,0,0,7.25,15.825v39.7a2.325,2.325,0,0,0,2.325,2.325H61.729a2.325,2.325,0,0,0,2.325-2.325v-39.7A2.325,2.325,0,0,0,61.729,13.5ZM40.788,55.535H30.517a1.176,1.176,0,0,1,0-2.352H40.788a1.176,1.176,0,0,1,0,2.352ZM61.231,50.22a.664.664,0,0,1-.664.664H10.738a.664.664,0,0,1-.664-.664V17a.664.664,0,0,1,.664-.664H60.567a.664.664,0,0,1,.664.664Z" transform="translate(11471 -1611.5)"/><path class="a" d="M13.5,37.575h7.268l3.986-6.385a.683.683,0,0,1,1.216.14l3.574,10.736,7.587-19.074a.662.662,0,0,1,1.262.1l3.1,14.018h8.052V19.75H13.5Zm3.488-14.337H28.336v2.937H16.988Z" transform="translate(11468.901 -1613.598)"/><path class="a" d="M40.314,40.811,37.564,28.38l-7.5,18.762a.664.664,0,0,1-.618.419h0a.664.664,0,0,1-.611-.452L25.127,35.994l-3.408,5.494a.664.664,0,0,1-.565.312H13.5V54.537H49.543v-13.2H40.959A.664.664,0,0,1,40.314,40.811ZM37.75,53.128H17.486v-2.08H37.75Zm4.152-2.08h4.152v2.08H41.9Z" transform="translate(11468.901 -1616.494)"/><path class="a" d="M69.75,51.64H80.878V19.75H69.75Zm5.568-26.987a2.744,2.744,0,1,1-2.744,2.737A2.744,2.744,0,0,1,75.318,24.653Zm0,22.337a1.495,1.495,0,1,1,1.495-1.495A1.495,1.495,0,0,1,75.318,46.99Zm0-7.806a2.744,2.744,0,1,1,2.737-2.737,2.744,2.744,0,0,1-2.737,2.737Z" transform="translate(11450.024 -1613.598)"/><rect class="a" width="10.464" height="2.824" transform="translate(11483.066 -1552.324)"/><rect class="a" width="10.464" height="2.824" transform="translate(11520.438 -1552.324)"/></g></svg>