<svg xmlns="http://www.w3.org/2000/svg" width="56.183" height="59.501" viewBox="0 0 56.183 59.501"><defs><style>.a{fill:#414141;}</style></defs><g transform="translate(-11748.5 1165)"><g transform="translate(11748.5 -1165)"><path class="a" d="M27.818,0A29.211,29.211,0,0,0,4.475,11.443a1.03,1.03,0,0,0-.114,1.144,1.167,1.167,0,0,0,.915.572h8.582a1.626,1.626,0,0,0,.687-.229A21.132,21.132,0,0,1,27.818,8.239,21.491,21.491,0,0,1,45.325,42.223H2.53a1.026,1.026,0,0,0-1.03,1.03v6.293a1.026,1.026,0,0,0,1.03,1.03H6.649A29.762,29.762,0,1,0,27.818,0ZM3.56,44.283H43.723c-.8.915-3.776,3.547-4.463,4.119H3.56V44.283ZM27.818,57.442A27.26,27.26,0,0,1,9.624,50.576H39.6a1.626,1.626,0,0,0,.687-.229C47.156,45.084,51.5,38.333,51.5,29.751A23.611,23.611,0,0,0,27.932,6.179a23.272,23.272,0,0,0-14.418,4.806H7.565A27.359,27.359,0,0,1,27.932,2.06a27.691,27.691,0,1,1-.114,55.382Z" transform="translate(-1.5)"/><path class="a" d="M3.644,35.739c2.975-.343,13.96-.229,16.134-.229C23.211,38.37,29.962,41,35.683,37.8c2.517-1.373,5.607-4.348,5.836-10.413.229-5.035-.915-8.7-3.2-10.985a7.1,7.1,0,0,0-5.264-2.174,4.257,4.257,0,0,1-2.289-.343l-6.408-3.662a.858.858,0,0,0-1.03,0,1.167,1.167,0,0,0-.572.915v2.746H19.092A4.1,4.1,0,0,0,14.972,18v2.174H3.53a1.026,1.026,0,0,0-1.03,1.03V34.594a1.039,1.039,0,0,0,.343.8A1.039,1.039,0,0,0,3.644,35.739Zm35.7-8.467c-.114,4.119-1.716,6.98-4.691,8.7A10.13,10.13,0,0,1,27.788,37c-5.95-8.811,3.776-18.88,5.607-20.6A5.058,5.058,0,0,1,36.713,18C38.544,19.719,39.459,22.923,39.345,27.271ZM4.56,22.351H16a1.026,1.026,0,0,0,1.03-1.03V18a2.051,2.051,0,0,1,2.06-2.06h4.691a1.026,1.026,0,0,0,1.03-1.03V12.968l4.806,2.746c.114,0,.458.229,1.144.458-3.2,3.433-9.612,11.786-5.836,20.024a13.323,13.323,0,0,1-4-2.4,1.626,1.626,0,0,0-.687-.229c-2.4,0-11.557,0-15.562.229V22.351Z" transform="translate(-1.356 1.45)"/></g></g></svg>