<svg xmlns="http://www.w3.org/2000/svg" width="69.65" height="53.5" viewBox="0 0 69.65 53.5"><defs><style>.a{fill:#414141;}</style></defs><g transform="translate(-11557 1288)"><g transform="translate(11557 -1288)"><path class="a" d="M48.258,38.626a20.079,20.079,0,0,0-39.391-5.5C8.553,33.407,5.1,45.669,5.1,45.669c-.429,1.6.521,3.247,1.867,3.247h3.144v6.33a3.067,3.067,0,0,0,3.067,3.067h5.975V69.637h16.46V57.272A20.108,20.108,0,0,0,48.258,38.626Z" transform="translate(-5 -16.137)"/><path class="a" d="M81.632,31l-1.554-2.495-1.263,3.7-1.84-8.271-1.494,8.586L73.17,24.407l-1.937,8.158-1.421-6.118-1.729,6.3L66.2,25.34,64.72,32.1l-.828-5.6-1.629,4.288-2.663.066a21.686,21.686,0,0,0-2.035-3.53.395.395,0,1,0-.644.457,20.656,20.656,0,0,1,3.486,8.168.4.4,0,0,0,.388.321.4.4,0,0,0,.074-.007.4.4,0,0,0,.315-.462,21.464,21.464,0,0,0-1.241-4.166l2.87-.071.741-1.95,1.016,6.875,1.684-7.716,1.8,7.066,1.695-6.174,1.476,6.357,2.014-8.487,2.429,8.528,1.4-8.06,1.585,7.124,1.634-4.786,2.134,3.427V29.918h3.951v-.79H81.632Z" transform="translate(-16.723 -17.357)"/><path class="a" d="M82.4,44.854,80.24,49.04l-1.48-2.408-2.012,2.082L75.222,46.74l-1.273.847L73.31,46.55l-1.217,1.768-1.223-3.533-1.778,3.282-1.367-2.735-1.33,3.26-.813-3.138-1.954,2.294h-1.6a21.7,21.7,0,0,0,.279-3.369.395.395,0,1,0-.789,0,20.95,20.95,0,0,1-.286,3.369h-.007v.05a20.644,20.644,0,0,1-1.058,3.968.4.4,0,0,0,.229.509.389.389,0,0,0,.14.026.4.4,0,0,0,.37-.255,21.434,21.434,0,0,0,.991-3.509h2.1L65.2,47.122l1.03,3.973L67.8,47.245l1.266,2.532,1.646-3.039,1.148,3.314L73.274,48l.432.7,1.343-.892,1.634,2.114,1.939-2.006,1.68,2.733,2.053-3.978.69,1.528h4.074v-.79H83.554Z" transform="translate(-17.468 -21.89)"/><path class="a" d="M77.8,17.841l-1.468-2.358-2.952,4.151-2.09-2.467-2.754,2.068-2.134-2-1.771.855-.826-.972L62.082,18.93l-1.668-3.5-2.421,3.243-1.862-2.7-1.883,3.352-1.17-3.277-2.5,2.129L45.09,18.1a21.477,21.477,0,0,0-3.36-1.172.4.4,0,1,0-.2.765,20.706,20.706,0,0,1,6.657,3.033.395.395,0,1,0,.449-.65,21.656,21.656,0,0,0-1.908-1.163l4.13.057,1.856-1.579,1.37,3.834,2.111-3.76,1.768,2.565,2.3-3.077,1.6,3.352,1.909-2.01.651.767,1.833-.885,2.221,2.086,2.69-2.02,2.266,2.674,2.855-4.013L77.36,18.63h5.483v-.79H77.8Z" transform="translate(-13.193 -15.434)"/></g></g></svg>