<svg xmlns="http://www.w3.org/2000/svg" width="62.244" height="62" viewBox="0 0 62.244 62"><defs><style>.a{fill:#414141;}</style></defs><g transform="translate(-11192 1603)"><g transform="translate(11192 -1603)"><path class="a" d="M25.632,39.731V37.3H17.173v2.431C14.645,39.925,12.7,40.9,12.7,43.62a.974.974,0,0,0,.972.972H29.23a1.065,1.065,0,0,0,.972-1.07C30.2,40.9,28.16,39.925,25.632,39.731Z" transform="translate(-1.323 -2.101)"/><path class="a" d="M37.9,21.5a1.03,1.03,0,0,0,.1-1.264A63.433,63.433,0,0,1,30.414,7.785a.731.731,0,0,0-.681-.486.831.831,0,0,0-.875.292,9.45,9.45,0,0,1-13.224,0,1.189,1.189,0,0,0-.875-.292,1.24,1.24,0,0,0-.681.486A63.433,63.433,0,0,1,6.494,20.231a.909.909,0,0,0,.1,1.264C15.44,30.927,28.956,30.83,37.9,21.5Z" transform="translate(-1.146 -1.27)"/><path class="a" d="M49.132,11.6V6.059a3.014,3.014,0,0,1,6.029,0V29.4a3.348,3.348,0,0,0-2.334,2.917c0,.1-1.167,14.78-1.167,14.974a4.473,4.473,0,1,0,8.946,0c0-.1-1.167-14.877-1.167-14.974A3.348,3.348,0,0,0,57.1,29.4V6.059a4.959,4.959,0,0,0-9.918,0V11.5a5.306,5.306,0,0,1-4.278,5.153V2.072a.919.919,0,0,0-.972-.972H1.972A.919.919,0,0,0,1,2.072V33.285a.919.919,0,0,0,.972.972H42.033a.919.919,0,0,0,.972-.972V18.6A6.966,6.966,0,0,0,49.132,11.6ZM41.061,32.41H2.945V3.045H41.061Z" transform="translate(-1 -1.1)"/><path class="a" d="M60.237,56.653a.963.963,0,1,0-1.361-1.361,1.88,1.88,0,0,1-2.723,0,.963.963,0,0,0-1.361,1.361A3.935,3.935,0,0,0,60.237,56.653Z" transform="translate(-2.479 -2.59)"/><path class="a" d="M61.235,57.792a5.4,5.4,0,0,1-7.682,0,.963.963,0,0,0-1.361,1.361,7.365,7.365,0,0,0,10.4,0,.963.963,0,1,0-1.361-1.361Z" transform="translate(-2.407 -2.659)"/><path class="a" d="M64.3,60.492a.94.94,0,0,0-1.361,0,7.748,7.748,0,0,1-11.085,0,.963.963,0,1,0-1.361,1.361,9.83,9.83,0,0,0,13.9,0A1.041,1.041,0,0,0,64.3,60.492Z" transform="translate(-2.36 -2.734)"/></g></g></svg>