<svg xmlns="http://www.w3.org/2000/svg" width="40" height="59.535" viewBox="0 0 40 59.535"><defs><style>.a{fill:#414141;}</style></defs><g transform="translate(-11942 1323)"><path class="a" d="M53.592,0C49.484,0,46.15,3.958,46.15,8.839a9.49,9.49,0,0,0,2.843,6.936c-.054.074-.109.149-.17.226a5.825,5.825,0,0,1-2.1,1.654,9.693,9.693,0,0,0-2.181,1.415h3.47a7.641,7.641,0,0,0,2.272-1.917c.078-.1.141-.192.21-.288a6.329,6.329,0,0,0,6.158.021,7.992,7.992,0,0,0,2.506,2.184h3.483a9.672,9.672,0,0,0-2.117-1.386A6.323,6.323,0,0,1,58.163,15.8a9.481,9.481,0,0,0,2.871-6.961C61.034,3.958,57.7,0,53.592,0Zm0,15.814c-3.078,0-5.581-3.129-5.581-6.975s2.5-6.978,5.581-6.978,5.581,3.13,5.581,6.978S56.67,15.814,53.592,15.814Z" transform="translate(11908.408 -1323)"/><path class="a" d="M46,106v7.442a2.794,2.794,0,0,0,2.791,2.791h1.86a2.794,2.794,0,0,0,2.791-2.791V106h-1.86v7.442a.931.931,0,0,1-.93.93h-1.86a.931.931,0,0,1-.93-.93V106Z" transform="translate(11907.628 -1379.698)"/><path class="a" d="M66,106v7.442a2.794,2.794,0,0,0,2.791,2.791h1.86a2.794,2.794,0,0,0,2.791-2.791V106h-1.86v7.442a.931.931,0,0,1-.93.93h-1.86a.931.931,0,0,1-.93-.93V106Z" transform="translate(11896.931 -1379.698)"/><path class="a" d="M61,68.721V47.791A2.794,2.794,0,0,0,58.209,45H23.791A2.794,2.794,0,0,0,21,47.791v20.93a2.794,2.794,0,0,0,2.791,2.791H58.209A2.794,2.794,0,0,0,61,68.721Zm-25.869.93A3.045,3.045,0,0,1,38,67.791a3.166,3.166,0,0,1,2.317.984.96.96,0,0,0,1.362,0A3.166,3.166,0,0,1,44,67.791a3.045,3.045,0,0,1,2.87,1.86Zm19.724-10.63A7.619,7.619,0,0,1,48,63.256H43.791v.7c0,.043-.005.085-.007.128.072,0,.143-.012.215-.012a6.694,6.694,0,0,1,6.692,5.581H48.808A4.859,4.859,0,0,0,44,65.93a5.061,5.061,0,0,0-.625.043l.017,0-.018,0a5.1,5.1,0,0,0-.562.1h0a5.147,5.147,0,0,0-.875.291V51.4a.93.93,0,1,0-1.86,0V66.369a5.148,5.148,0,0,0-.875-.291h0a5.1,5.1,0,0,0-.562-.1l-.018,0,.017,0A5.059,5.059,0,0,0,38,65.93a4.859,4.859,0,0,0-4.81,3.721H31.31A6.694,6.694,0,0,1,38,64.07c.072,0,.143.01.215.012,0-.043-.007-.085-.007-.128v-.7H34a7.619,7.619,0,0,1-6.852-4.235.93.93,0,1,1,1.664-.832A5.768,5.768,0,0,0,34,61.4h4.212V58.6H35.857a7.619,7.619,0,0,1-6.852-4.235.93.93,0,0,1,1.664-.832,5.768,5.768,0,0,0,5.188,3.206h2.352V53.953h-.491a7.619,7.619,0,0,1-6.852-4.235.93.93,0,1,1,1.664-.832,5.768,5.768,0,0,0,5.188,3.206h.491v-.7a2.791,2.791,0,0,1,5.581,0v.7h.491a5.768,5.768,0,0,0,5.188-3.206.93.93,0,0,1,1.664.832,7.619,7.619,0,0,1-6.852,4.235h-.491v2.791h2.352a5.768,5.768,0,0,0,5.188-3.206.93.93,0,0,1,1.664.832A7.619,7.619,0,0,1,46.143,58.6H43.791V61.4H48a5.768,5.768,0,0,0,5.188-3.206.93.93,0,0,1,1.664.832Z" transform="translate(11921 -1347.07)"/></g></svg>