<svg xmlns="http://www.w3.org/2000/svg" width="54.258" height="41.163" viewBox="0 0 54.258 41.163"><defs><style>.a{fill:#454545;}</style></defs><g transform="translate(-238.113 -502)"><g transform="translate(238.113 512.307)"><path class="a" d="M14.753,64.413a.693.693,0,0,1-.693.693H11.806a.693.693,0,0,1-.693-.693V34.943a.693.693,0,0,1,.693-.693H14.06a.693.693,0,0,1,.693.693Z" transform="translate(-11.113 -34.25)"/></g><g transform="translate(241.06 528.255)"><path class="a" d="M64.421,65.734a.628.628,0,0,1-.693.53H16.056a.628.628,0,0,1-.693-.53V57.78a.628.628,0,0,1,.693-.53H63.727a.628.628,0,0,1,.693.53Z" transform="translate(-15.363 -57.25)"/></g><g transform="translate(289.424 523.228)"><path class="a" d="M88.06,69.242a.693.693,0,0,1-.693.693h-1.56a.693.693,0,0,1-.693-.693V50.693A.693.693,0,0,1,85.806,50h1.56a.693.693,0,0,1,.693.693Z" transform="translate(-85.113 -50)"/></g><g transform="translate(242.844 523.054)"><path class="a" d="M17.936,54.95a5.2,5.2,0,0,1,10.408,0Z" transform="translate(-17.936 -49.75)"/></g><g transform="translate(257.373 502)"><path class="a" d="M46.594,19.386A7.706,7.706,0,1,0,54.3,27.092,7.7,7.7,0,0,0,46.594,19.386Zm5.144,8.656a.213.213,0,0,1-.225.2H47.739v3.772a.213.213,0,0,1-.2.226h-1.9a.213.213,0,0,1-.2-.226V28.239H41.675a.213.213,0,0,1-.226-.2v-1.9a.213.213,0,0,1,.226-.2h3.771V22.174a.213.213,0,0,1,.2-.226h1.9a.213.213,0,0,1,.2.226v3.772h3.773a.212.212,0,0,1,.225.2v1.9Z" transform="translate(-38.889 -19.386)"/></g></g></svg>