<svg xmlns="http://www.w3.org/2000/svg" width="35.355" height="35.384" viewBox="0 0 35.355 35.384"><defs><style>.a{fill:#2189d6;}.b{fill:#3bafb4;}.c{opacity:0.662;}.d,.g{fill:#1bb8de;}.e,.g{opacity:0.809;}.f{fill:#2fa4c4;}</style></defs><path class="a" d="M55.87,30.556l-4.4-4.4a3.193,3.193,0,0,0-4.416,0l-.705.726c-.025.025-.767.756-.767.788a1.008,1.008,0,0,0,.041,1.41L52.946,36.4a1,1,0,0,0,1.451,0l1.472-1.472A3.074,3.074,0,0,0,55.87,30.556Z" transform="translate(-42.201 -23.528)"/><path class="a" d="M331.543,306.836l-4.4-4.4a3.142,3.142,0,0,0-4.375,0l-.726.746-.746.726a1,1,0,0,0,0,1.451l7.339,7.339a1.025,1.025,0,0,0,1.472,0l.7-.726.726-.746A3.091,3.091,0,0,0,331.543,306.836Z" transform="translate(-298.821 -280.714)"/><path class="b" d="M32.208,76.5l-.7.726c-5.66,5.1-12.274,3.877-16.006.124l-12-12.044a11.2,11.2,0,0,1,0-15.84.8.8,0,0,0,.187-.187l.684-.684,8.77,8.77-.415.435-.311.311c-.664.726-1.2,1.182-1.2,2.2a2.4,2.4,0,0,0,.684,1.679l3.462,3.462,3.462,3.5a2.418,2.418,0,0,0,3.338,0l.539-.518.746-.726Z" transform="translate(-0.212 -45.241)"/><g class="c" transform="translate(16.706)"><path class="d" d="M260.589,17.623a1.037,1.037,0,0,1-2.073,0,15.573,15.573,0,0,0-15.55-15.55,1.037,1.037,0,0,1,0-2.073,17.626,17.626,0,0,1,17.623,17.623Z" transform="translate(-241.94)"/><path class="d" d="M256.443,73.476a1.037,1.037,0,0,1-2.073,0,11.4,11.4,0,0,0-11.4-11.4,1.037,1.037,0,0,1,0-2.073,13.52,13.52,0,0,1,13.476,13.476Z" transform="translate(-241.94 -55.853)"/><path class="d" d="M252.3,129.33a1.037,1.037,0,0,1-2.073,0,7.291,7.291,0,0,0-7.256-7.256,1.037,1.037,0,0,1,0-2.073,9.344,9.344,0,0,1,9.33,9.33Z" transform="translate(-241.94 -111.707)"/><path class="d" d="M248.15,185.183a1.037,1.037,0,0,1-2.073,0,3.114,3.114,0,0,0-3.11-3.11,1.037,1.037,0,0,1,0-2.073,5.167,5.167,0,0,1,5.183,5.183Z" transform="translate(-241.94 -167.56)"/></g><g class="e" transform="translate(19.93 8.107)"><path class="d" d="M289.5,205.569a3.084,3.084,0,0,0-.912-2.2l1.472-1.472a5.188,5.188,0,0,1,1.513,3.67A1.037,1.037,0,0,1,289.5,205.569Z" transform="translate(-288.59 -196.052)"/><path class="d" d="M333.022,166.193a7.173,7.173,0,0,0-2.136-5.121l1.472-1.472a9.275,9.275,0,0,1,2.737,6.593A1.037,1.037,0,0,1,333.022,166.193Z" transform="translate(-327.964 -156.677)"/><path class="d" d="M376.826,126.816a11.429,11.429,0,0,0-3.338-8.065l1.451-1.451a13.379,13.379,0,0,1,3.96,9.516A1.037,1.037,0,0,1,376.826,126.816Z" transform="translate(-367.621 -117.3)"/></g><path class="f" d="M148.619,294.759l8.77,8.791-.7.726c-5.66,5.1-12.274,3.877-16.006.124l-5.992-6.032v-.021l5.847-5.847,3.462,3.5a2.418,2.418,0,0,0,3.338,0l.539-.518Z" transform="translate(-125.393 -272.286)"/><path class="g" d="M422.423,87.16a1.037,1.037,0,0,1-2.073,0,15.482,15.482,0,0,0-4.561-10.988l1.472-1.472A17.583,17.583,0,0,1,422.423,87.16Z" transform="translate(-387.069 -69.537)"/></svg>