<svg xmlns="http://www.w3.org/2000/svg" width="49.575" height="55.013" viewBox="0 0 49.575 55.013"><defs><style>.a{fill:#454545;}.b,.d{fill:none;}.b,.c,.d{stroke:#000;stroke-miterlimit:10;}.b{stroke-width:0.1px;}.c{stroke-width:0.25px;}.d{stroke-width:0.15px;}</style></defs><g transform="translate(-194.788 -581)"><path class="a" d="M25.649,13.073a4.07,4.07,0,0,1-1.782,3.015c-1.644.959.411-.411,0-1.507a3.913,3.913,0,0,1-3.015,2.467,11.539,11.539,0,0,0,1.507-2.467,12.47,12.47,0,0,1-7.126,5.071s3.426-.274,4.8-5.893c0,0-.822,2.33-4.522,3.563,0,0,.411.137,1.507-1.919,0,0-.137.274-1.1.548a5.352,5.352,0,0,0,.548-1.37,3.968,3.968,0,0,1-2.056.959,1.353,1.353,0,0,0,.822-.959c.274-.822-1.507-.685-1.507-.685s-1.37-.137-1.782,2.056c0,0,0,2.6-.548,3.015a7.064,7.064,0,0,1-.548-5.071l.548-1.919-.548.274s.137-.959.548-1.1a1.738,1.738,0,0,0-1.1.411s1.919-3.426,4.111-3.974c0,0,.548-.822,1.1-.959.411-.137,0-.274-.274-.274l1.645-.822h-1.37c-.959,0,2.741-1.37,5.482-1.233H23.73a22.466,22.466,0,0,1,8.222,1.782c3.152,1.507,5.208,3.974,5.756,8.771a22.659,22.659,0,0,1-1.37,9.319s-1.1,4.8-.411,7.263l-1.37.548-.411-1.919s.137.411.548-.411a35.991,35.991,0,0,0,1.1-5.756c.137-1.782-.137-2.6-.959-2.467s-1.37.959-1.645,2.467c-.137,1.507-.274,1.645-.274,1.645L32.364,25a2.411,2.411,0,0,0,.137.822,1.4,1.4,0,0,1-.959-.959l-.548,1.1.274-6.578-.822.685a6.229,6.229,0,0,0,0-4.8,18.284,18.284,0,0,0-1.919-2.33l-.274.548C28.252,13.621,26.882,12.114,25.649,13.073Z" transform="translate(189.06 576.707)"/><path class="b" d="M12.048,14.8a25,25,0,0,0,.959,5.482,2.577,2.577,0,0,1,.137,1.645,10.567,10.567,0,0,0,0,4.248s2.056-1.507,2.741-2.193c.685-.548,1.507-1.644,4.248,0a8.24,8.24,0,0,0,1.919.959c.411,0,1.1,0,3.289,1.507a10.367,10.367,0,0,0,2.33,1.645,12.08,12.08,0,0,0,2.878.411s-3.7,3.563-3.837,5.208a5.877,5.877,0,0,0-.822-2.33c-.548-.548-3.563-4.111-4.111-4.385,0,0-.822-.137-.822.411a14.707,14.707,0,0,0-2.056-2.33c-.411,0-1.37.411-.822,1.644S21.23,31.93,21.23,31.93l.274,3.563S20.545,32.478,20,32.341a18.27,18.27,0,0,0-3.563.685l-1.37.959a12.121,12.121,0,0,1,1.919-1.919c.685-.411,2.33-1.233,2.056-1.644-.137-.411-1.507-.411-2.467,0a21.173,21.173,0,0,0-3.015,2.056l.274-.822,4.248-3.289s.548-.959-.685-1.1l-1.919,1.1-1.1-.274a26.848,26.848,0,0,0,2.193-1.645s1.782-1.1.959-1.919c0,0-.411-.274-2.467.822l-2.056,1.1-3.7,3.7s-.274.137-.274,1.507-.685,6.167-.685,6.167-.274.822.959,2.33a64.179,64.179,0,0,1,.822,6.715,14.146,14.146,0,0,1-.685,4.659A18.407,18.407,0,0,1,7.8,55.364h7.948a15.219,15.219,0,0,1,.274-3.152,17.664,17.664,0,0,1,.137,3.152H23.7s-.274-5.482-.137-6.3a22.148,22.148,0,0,1,1.507-3.426S27.26,38.782,27.4,38.1s-.548-2.193-.685-3.289" transform="translate(188.135 580.599)"/><path class="b" d="M13.578,23.1s-4.111,2.467-4.934,3.015A9.7,9.7,0,0,1,7,30.774a1.534,1.534,0,0,0,.685,1.233c.822.411.137,1.644.137,1.644s-.548,1.782.274,2.467a4.626,4.626,0,0,1,1.644,2.056" transform="translate(187.838 583.673)"/><path class="b" d="M22.3,36a16.356,16.356,0,0,0,8.36-4.522c-1.1-1.645-1.507-8.223-1.507-8.223s0-.411-.548-.548-.822.548-.822.548c-.137,4.934-1.507,7.263-2.878,8.36a15.949,15.949,0,0,0-2.6,2.878" transform="translate(193.505 583.521)"/><path class="b" d="M17.4,24s2.878,3.837,3.015,4.248,1.1,5.345,1.1,5.345l-.411,1.1" transform="translate(191.691 584.007)"/><path class="b" d="M17.9,30.2l.411,1.233L17.9,32.8" transform="translate(191.875 586.303)"/><path class="b" d="M12.9,29.2s.274,1.507.411,2.6a4.408,4.408,0,0,1,.137,1.1s.959,1.507,1.37,2.33c0,0,.959-2.056.548-2.6a3.512,3.512,0,0,0-1.644-.822h-.274" transform="translate(190.024 585.933)"/><path class="b" d="M13,30.176s2.6-.959,3.426-.548a2.6,2.6,0,0,1,.959,2.193l-1.645-1.782a4.287,4.287,0,0,0-2.6.411" transform="translate(190.061 586.053)"/><path class="b" d="M16.3,31.2s.274.274,0,1.233" transform="translate(191.283 586.674)"/><path class="c" d="M16.5,18.133s.137.548.548.685,2.741-1.233,2.741-1.233l3.426.548A31.562,31.562,0,0,0,19.789,16.9C19.515,17.037,16.5,18.133,16.5,18.133Z" transform="translate(191.358 581.377)"/><path class="d" d="M17.6,18.837s.411-.137.548,0c.274.137,1.507.822,2.056.685a2.653,2.653,0,0,0,1.782-.822" transform="translate(191.764 582.043)"/><path class="d" d="M12,19.274a1.508,1.508,0,0,0,1.233.411A7.108,7.108,0,0,0,14.878,19l.411.137" transform="translate(189.691 582.155)"/><path d="M15.922,18.948s.274-.137-.548-.822c0,0-1.1-.959-1.782-.822a15.509,15.509,0,0,0-2.193.822l.137.274,1.919-.274a19.517,19.517,0,0,1,2.193.685" transform="translate(189.468 581.521)"/><path class="d" d="M14.7,18.7a7.036,7.036,0,0,1,0,3.015" transform="translate(190.691 582.043)"/><path class="b" d="M12.285,27.9s-.411,0-.411,1.782a20.585,20.585,0,0,1-.274,3.289" transform="translate(189.541 585.451)"/><path class="b" d="M14,24.733a2.618,2.618,0,0,0-1.507,0,26.491,26.491,0,0,0-2.6,2.193,1.048,1.048,0,0,0-.274.685c0,.548-.411,5.619-.411,5.619" transform="translate(188.652 584.233)"/><path class="b" d="M14.822,24.9s-3.7,1.782-3.974,2.6c-.137.822-.548,5.482-.548,5.482" transform="translate(189.06 584.34)"/><path class="b" d="M14.462,33.6a13.57,13.57,0,0,0-.959,5.208c.137,2.6.137,4.522.274,6.3" transform="translate(190.242 587.563)"/><path class="a" d="M23.264,33.111A20.226,20.226,0,0,0,31.9,29s.822,5.071,5.619,5.756,12.334,1.1,13.841,4.522c1.37,3.563.411,10.415.411,10.415l-32.342.274s-.959-4.111-.137-6.167a45.518,45.518,0,0,0,1.919-5.482A44.953,44.953,0,0,0,23.264,33.111Z" transform="translate(192.267 585.859)"/></g></svg>