<svg xmlns="http://www.w3.org/2000/svg" width="62.965" height="54.963" viewBox="0 0 62.965 54.963"><defs><style>.a{fill:#454545;}</style></defs><g transform="translate(-11 -14.1)"><path class="a" d="M46.68,47.288A12.99,12.99,0,0,1,59.8,34.17a13.215,13.215,0,0,1,5.641,1.312,32.464,32.464,0,0,0,.394-4.591c0-9.314-7.084-16.791-15.872-16.791a15.171,15.171,0,0,0-11.544,5.247A15.171,15.171,0,0,0,26.872,14.1C18.084,14.1,11,21.577,11,30.891c0,7.608,8.526,38.172,15.872,38.172,3.542,0,4.591-3.935,5.9-8.4A41.126,41.126,0,0,1,35.4,53.322c.787-1.443,1.836-2.361,3.017-2.361h0c1.181,0,2.23.787,3.017,2.361A46.385,46.385,0,0,1,44.056,60.8c1.312,4.329,2.361,8.133,5.9,8.133,1.049,0,3.8,0,8-8.658A13.909,13.909,0,0,1,50.484,56.6,12.983,12.983,0,0,1,46.68,47.288Z" transform="translate(0 0)"/><path class="a" d="M64.47,53.831l-5.509-5.509a10.338,10.338,0,0,0,2.23-6.428A10.525,10.525,0,0,0,50.7,31.4h0a10.623,10.623,0,0,0-7.477,3.017A9.892,9.892,0,0,0,40.2,41.894,10.525,10.525,0,0,0,50.7,52.519a9.813,9.813,0,0,0,6.428-2.23L62.634,55.8a1.346,1.346,0,1,0,1.836-1.968Zm-19.414-6.3a8.164,8.164,0,0,1-2.361-5.641,7.841,7.841,0,0,1,2.361-5.641A7.927,7.927,0,0,1,50.7,33.892h0a7.871,7.871,0,0,1,0,15.741A7.592,7.592,0,0,1,45.056,47.535Z" transform="translate(9.101 5.394)"/></g></svg>