<svg xmlns="http://www.w3.org/2000/svg" width="41.663" height="54.963" viewBox="0 0 41.663 54.963"><defs><style>.a{fill:#454545;}</style></defs><g transform="translate(-6577.5 -1779)"><g transform="translate(6577.5 1779)"><path class="a" d="M21.311,31.42c.785.121,7.548,1.087,10.989.6a9.8,9.8,0,0,0,2.113-.543A9.569,9.569,0,0,0,39,27.254a53.731,53.731,0,0,1,2.536,7.85,26.253,26.253,0,0,1-2.355-1.389c-.845-.483-1.691-1.087-2.6-1.51a9.517,9.517,0,0,1-1.57.785,11.164,11.164,0,0,1-2.536.664,33.493,33.493,0,0,1-6.038,0c-3.683,4.106-4.831,11.714-5.072,14.371a3.241,3.241,0,0,0,.664,2.476h6.159a4.139,4.139,0,0,0,.664-1.691c.6-5.374,2.415-9.721,3.442-10.386a14.389,14.389,0,0,1,2.959,1.57,38.49,38.49,0,0,0,3.623,2.113,2.264,2.264,0,0,1,.664-.06H50.958a7.145,7.145,0,0,0,2.959-3.563,10.34,10.34,0,0,0-.06-6.642c-1.087-4.891-4.227-12.318-5.917-14.552a6.119,6.119,0,0,0-7.97-1.811,3.457,3.457,0,0,0-1.026.906,48.022,48.022,0,0,0-3.623,6.038l-.121.362c-.906,2.053-1.691,3.623-3.623,3.925-2.294.3-7.608-.3-9.48-.6A2.664,2.664,0,0,0,19.077,28.4,2.621,2.621,0,0,0,21.311,31.42Z" transform="translate(-16.903 -5.24)"/><circle class="a" cx="6.883" cy="6.883" r="6.883" transform="matrix(0.926, -0.377, 0.377, 0.926, 4.384, 5.196)"/><path class="a" d="M57.042,65.5c0-.793-.845-1.4-1.872-1.4H38.143a1.71,1.71,0,0,0-1.872,1.447V70.68h-18.9A1.71,1.71,0,0,0,15.5,72.127v6.207a1.71,1.71,0,0,0,1.872,1.447h37.92a1.71,1.71,0,0,0,1.872-1.447Z" transform="translate(-15.5 -24.817)"/></g></g></svg>