<svg xmlns="http://www.w3.org/2000/svg" width="43" height="43" viewBox="0 0 43 43"><defs><style>.a{fill:#454545;}</style></defs><g transform="translate(-3 -3)"><path class="a" d="M74.587,122.984c-.731,0-1.1.272-1.11.355.012.083.379.355,1.11.355.7,0,1.058-.245,1.1-.34-.005-.018-.01-.038-.015-.057A1.55,1.55,0,0,0,74.587,122.984Z" transform="translate(-45.637 -77.695)"/><path class="a" d="M72.544,66.29c-1.83-7.631-1.946-20.649-1.578-22.4.589-2.8,2.16-3.612,3.522-3.752a5.291,5.291,0,0,1-.2-1.45,5.163,5.163,0,0,1,.556-2.351A7.7,7.7,0,0,0,69.9,40.575c-2.1,4.883.057,22.051.57,25.856a2.691,2.691,0,0,1,1.217-.259A3.032,3.032,0,0,1,72.544,66.29Z" transform="translate(-42.738 -21.586)"/><path class="a" d="M93.329,5.132A7.806,7.806,0,0,0,88.174,3c-.1,0-.153,0-.157,0A5.775,5.775,0,0,0,82,8.5a5.381,5.381,0,0,0,2.875,4.694.353.353,0,0,1,.051.58,4.4,4.4,0,0,0,0,6.651.353.353,0,0,1-.051.58A5.381,5.381,0,0,0,82,25.7a5.766,5.766,0,0,0,5.992,5.5,7.758,7.758,0,0,0,5.35-2.139c2.531-2.364,3.814-6.387,3.814-11.957S95.869,7.494,93.329,5.132Zm-.352,19.146a5.055,5.055,0,0,1-3.363,1.431l-.084,0h0a2.52,2.52,0,0,1-2.594-2.422,2.4,2.4,0,0,1,1.306-2.1,4.465,4.465,0,0,0,2.519-3.36,9.941,9.941,0,0,0,.053-1.047c0-.145,0-.284-.008-.419a4.511,4.511,0,0,0-2.563-3.693,2.4,2.4,0,0,1-1.306-2.1,2.527,2.527,0,0,1,2.614-2.422,5.089,5.089,0,0,1,3.5,1.443c1.558,1.477,2.348,3.9,2.348,7.189C95.393,20.237,94.58,22.759,92.977,24.278Z" transform="translate(-51.156)"/><path class="a" d="M102.933,20.869a4.5,4.5,0,0,0-2.966-1.262h-.039A1.829,1.829,0,0,0,98,21.325a1.7,1.7,0,0,0,.934,1.477,5.2,5.2,0,0,1,2.935,4.286q.009.215.009.447a10.708,10.708,0,0,1-.057,1.122,5.153,5.153,0,0,1-2.886,3.907A1.7,1.7,0,0,0,98,34.04a1.823,1.823,0,0,0,1.909,1.717,4.364,4.364,0,0,0,2.956-1.249c1.449-1.383,2.183-3.729,2.183-6.973C105.049,24.452,104.337,22.209,102.933,20.869Z" transform="translate(-61.516 -10.754)"/><path class="a" d="M16.116,22.8a1.7,1.7,0,0,0,.934-1.477,1.823,1.823,0,0,0-1.909-1.718h-.046a4.5,4.5,0,0,0-2.977,1.262C10.712,22.209,10,24.452,10,27.535c0,3.254.739,5.6,2.2,6.986a4.321,4.321,0,0,0,2.925,1.237,1.83,1.83,0,0,0,1.928-1.718,1.7,1.7,0,0,0-.934-1.477,5.154,5.154,0,0,1-2.886-3.906,10.62,10.62,0,0,1-.057-1.122q0-.232.008-.447A5.2,5.2,0,0,1,16.116,22.8Z" transform="translate(-4.533 -10.754)"/><path class="a" d="M15.28,21.009a.353.353,0,0,1-.051-.58,4.4,4.4,0,0,0,0-6.651.353.353,0,0,1,.051-.58A5.381,5.381,0,0,0,18.156,8.5a5.766,5.766,0,0,0-5.992-5.5c-.007,0-.062,0-.156,0A7.842,7.842,0,0,0,6.814,5.146C4.283,7.51,3,11.533,3,17.1S4.283,26.7,6.814,29.061A7.743,7.743,0,0,0,12.139,31.2a5.775,5.775,0,0,0,6.017-5.5A5.381,5.381,0,0,0,15.28,21.009ZM9.4,17.831a4.465,4.465,0,0,0,2.519,3.36,2.4,2.4,0,0,1,1.306,2.1,2.527,2.527,0,0,1-2.614,2.422h-.076a5.052,5.052,0,0,1-3.352-1.432c-1.6-1.519-2.416-4.041-2.416-7.5,0-3.293.79-5.712,2.348-7.189a5.089,5.089,0,0,1,3.515-1.443h0a2.52,2.52,0,0,1,2.594,2.422,2.4,2.4,0,0,1-1.306,2.1,4.51,4.51,0,0,0-2.563,3.693q-.008.2-.008.419A10.049,10.049,0,0,0,9.4,17.831Z" transform="translate(0 -0.003)"/><path class="a" d="M49.434,122.984a1.558,1.558,0,0,0-1.075.311c-.005.02-.01.04-.016.06a1.391,1.391,0,0,0,1.091.34c.7,0,1.091-.264,1.1-.355C50.525,123.248,50.136,122.984,49.434,122.984Z" transform="translate(-29.361 -77.695)"/><path class="a" d="M42.409,36.305a5.161,5.161,0,0,1,.561,2.362,5.289,5.289,0,0,1-.2,1.446c1.363.128,2.95.926,3.541,3.757.366,1.751.251,14.767-1.566,22.4a3.013,3.013,0,0,1,.847-.117,2.664,2.664,0,0,1,1.205.257c.509-3.811,2.647-20.973.565-25.855A7.654,7.654,0,0,0,42.409,36.305Z" transform="translate(-25.519 -21.566)"/></g></svg>