<svg xmlns="http://www.w3.org/2000/svg" width="61.021" height="54.963" viewBox="0 0 61.021 54.963"><defs><style>.a{fill:#454545;}</style></defs><g transform="translate(-386.849 -584)"><g transform="translate(386.849 584)"><path class="a" d="M60.428,5.33a4.283,4.283,0,0,0-4.505-1.214c-4.329,1.068-7.63,3.967-10.068,8.854a3.761,3.761,0,0,1-3.546,2.36,5.989,5.989,0,0,1-2.233-.47,17.923,17.923,0,0,0-17.434,0,5.952,5.952,0,0,1-2.233.47,3.761,3.761,0,0,1-3.546-2.36C14.425,8.082,11.124,5.183,6.8,4.115A4.277,4.277,0,0,0,2.29,5.33C.948,6.907.527,9.718,1.095,13.253l.01.049c.294,1.342.548,2.693.754,4a13.134,13.134,0,0,1,.1,1.44,9.32,9.32,0,0,0,.294,2.507,4.471,4.471,0,0,0,1.381,1.91,3.522,3.522,0,0,1,.793.94,6.078,6.078,0,0,1,.235.774,5.939,5.939,0,0,0,.46,1.371c.735,1.4,3.653,4.084,6.063,4.084a2.574,2.574,0,0,0,1.841-.725c3.3-3.2-.088-6.9-1.91-8.893l-.225-.245a5.665,5.665,0,0,1-1-2.116c-.137-.4-.274-.823-.441-1.224a8.2,8.2,0,0,0-1.322-2.008,3.723,3.723,0,0,1-1.117-2.145,3.9,3.9,0,0,1,.529-2.478c.069-.078.108-.078.118-.078.029,0,.255.01.705.4a20.776,20.776,0,0,1,2.5,2.88c.451.6.93,1.214,1.41,1.773,1.391,1.606,3.017,3.467,4.711,5.2.2.2.382.421.588.656a9.079,9.079,0,0,0,1.479,1.459c.313.225.6.4.833.548.725.451.813.509.921,1.342.069.519.108,1.038.137,1.587.039.47.069.96.118,1.44a45.711,45.711,0,0,0,1.254,6.592c.176.666.362,1.244.539,1.8.578,1.822.96,3.017.421,4.975-.7,2.478-1.058,5.935,1.009,8.531l.754,4.584c.059.441.7,3.967,5.573,4.711l1.43.01.078-.01c4.878-.744,5.514-4.26,5.573-4.711L38.44,49.6c2.067-2.6,1.7-6.053,1.009-8.531-.539-1.959-.157-3.154.421-4.975.176-.558.362-1.136.539-1.8A45.71,45.71,0,0,0,41.663,27.7c.049-.48.078-.97.118-1.44.029-.548.069-1.068.137-1.587.108-.833.2-.891.921-1.342.235-.147.519-.323.833-.548a9.079,9.079,0,0,0,1.479-1.459c.206-.235.392-.46.588-.656,1.694-1.734,3.32-3.594,4.711-5.2.48-.558.96-1.175,1.41-1.773a20.776,20.776,0,0,1,2.5-2.88c.451-.392.676-.4.705-.4.01,0,.049,0,.118.078a3.9,3.9,0,0,1,.529,2.478,3.723,3.723,0,0,1-1.117,2.145,8.2,8.2,0,0,0-1.322,2.008c-.167.4-.3.823-.441,1.224a5.665,5.665,0,0,1-1,2.116l-.225.245c-1.822,1.988-5.211,5.69-1.91,8.893a2.574,2.574,0,0,0,1.841.725c2.409,0,5.328-2.684,6.063-4.084a5.94,5.94,0,0,0,.46-1.371,6.077,6.077,0,0,1,.235-.774,3.522,3.522,0,0,1,.793-.94,4.471,4.471,0,0,0,1.381-1.91,9.32,9.32,0,0,0,.294-2.507,13.135,13.135,0,0,1,.1-1.44c.206-1.3.46-2.644.754-4l.01-.049C62.191,9.718,61.77,6.907,60.428,5.33ZM40.386,20.636a1.952,1.952,0,0,1-.121.227c-.249.4-.675.618-.936.987a4.629,4.629,0,0,0-.7,1.535,7.122,7.122,0,0,0-.157.837c-.078.607-.118,1.214-.157,1.812-.029.451-.059.872-.1,1.283A42.47,42.47,0,0,1,37.049,33.4c-.157.6-.323,1.126-.49,1.655A10.875,10.875,0,0,0,36.109,42c.48,1.724.793,4.094-.48,5.544l-.46.529-.921,5.651c-.029.137-.313,1.322-2.488,1.714h-.8c-2.174-.392-2.458-1.587-2.488-1.743l-.921-5.622-.47-.529c-1.263-1.45-.95-3.82-.47-5.544a10.943,10.943,0,0,0-.451-6.964c-.167-.509-.333-1.048-.49-1.636A41.646,41.646,0,0,1,24.5,27.318c-.039-.421-.069-.833-.1-1.283-.039-.588-.078-1.2-.157-1.8a5.338,5.338,0,0,0-.8-2.332,5.534,5.534,0,0,0-1.1-1.066,1.462,1.462,0,0,1,.332-2.333c.248-.107.517-.132.767-.222s.509-.222.765-.325l.108-.059a14.7,14.7,0,0,1,14.123.02l.118.059c.853.427,1.79.439,1.973,1.571A1.907,1.907,0,0,1,40.386,20.636Z" transform="translate(-0.849 -3.941)"/><path class="a" d="M35.917,26.373c.045-.667.091-1.346.18-2.039a9.156,9.156,0,0,1,.548-2.194,1.532,1.532,0,0,0-.015-1.188,1.4,1.4,0,0,0-.787-.746l-.111-.041a11.983,11.983,0,0,0-7.738.038,1.338,1.338,0,0,0-.776.712,1.55,1.55,0,0,0-.024,1.2,9.5,9.5,0,0,1,.549,2.219c.088.684.134,1.356.174,1.951.03.47.055.842.093,1.186a39.063,39.063,0,0,0,1.08,5.659c.136.515.286.984.445,1.483a13.615,13.615,0,0,1,.488,8.658,4.321,4.321,0,0,0-.147,2.809,2.6,2.6,0,0,0,1.96.892h.169a2.6,2.6,0,0,0,1.959-.89,4.33,4.33,0,0,0-.146-2.811,13.744,13.744,0,0,1,.482-8.64c.164-.514.315-.992.45-1.5a39.157,39.157,0,0,0,1.08-5.655C35.867,27.134,35.892,26.764,35.917,26.373Z" transform="translate(-1.388 -4.262)"/></g></g></svg>