<svg xmlns="http://www.w3.org/2000/svg" width="31.673" height="31.674" viewBox="0 0 31.673 31.674"><g transform="translate(-2478 -1751)"><path d="M26.395,0H5.279A5.279,5.279,0,0,0,0,5.279V26.395a5.279,5.279,0,0,0,5.279,5.279H26.395a5.279,5.279,0,0,0,5.279-5.279V5.279A5.279,5.279,0,0,0,26.395,0Zm2.639,26.395a2.639,2.639,0,0,1-2.639,2.639H5.279a2.639,2.639,0,0,1-2.639-2.639V5.279A2.639,2.639,0,0,1,5.279,2.639H26.395a2.639,2.639,0,0,1,2.639,2.639Z" transform="translate(2478 1751)"/><path d="M13.918,6a7.918,7.918,0,1,0,7.918,7.918A7.918,7.918,0,0,0,13.918,6Zm0,13.2A5.279,5.279,0,1,1,19.2,13.918,5.279,5.279,0,0,1,13.918,19.2Z" transform="translate(2479.918 1752.918)"/><circle cx="2" cy="2" r="2" transform="translate(2500 1756.601)"/></g></svg>