<svg xmlns="http://www.w3.org/2000/svg" width="17.264" height="26.148" viewBox="0 0 17.264 26.148"><defs><style>.a{fill:#095a86;}</style></defs><g transform="translate(-2866 -2622)"><g transform="translate(2866 2622)"><path class="a" d="M32.8,26.7c2.014-3.533,5.817-10.6,5.817-13.57a7.542,7.542,0,1,0-15.083,0c0,3.007,3.77,10,5.813,13.571.559-.034,1.137-.051,1.729-.051S32.246,26.671,32.8,26.7ZM26.65,12.533a4.429,4.429,0,1,1,4.429,4.429A4.434,4.434,0,0,1,26.65,12.533Z" transform="translate(-22.447 -5.592)"/><path class="a" d="M43.465,24.785V23.57h1.214a.257.257,0,0,0,.256-.256V21.838a.257.257,0,0,0-.256-.256H43.465V20.367a.256.256,0,0,0-.256-.256H41.733a.256.256,0,0,0-.256.256v1.215H40.262a.257.257,0,0,0-.256.256v1.475a.257.257,0,0,0,.256.256h1.214v1.215a.257.257,0,0,0,.256.256h1.476A.256.256,0,0,0,43.465,24.785Z" transform="translate(-33.838 -15.635)"/><path class="a" d="M30.357,74.072c-.667,1.17-1.138,1.953-1.209,2.071l-.12.2a.462.462,0,0,1-.791,0l-.119-.2c-.163-.27-.615-1.025-1.214-2.071-3.939.236-6.9,1.262-6.9,2.492,0,1.4,3.865,2.543,8.632,2.543s8.632-1.139,8.632-2.543C37.264,75.334,34.3,74.308,30.357,74.072Z" transform="translate(-20 -52.96)"/></g></g></svg>