<svg xmlns="http://www.w3.org/2000/svg" width="47" height="31.207" viewBox="0 0 47 31.207"><defs><style>.a{fill:#75ddd5;}.b{fill:#3bafb4;}.c{fill:#baf7ff;}</style></defs><g transform="translate(0 0)"><path class="a" d="M437,91h5.674v29.789H437Z" transform="translate(-395.674 -90.291)"/><path class="a" d="M44.163,95.167,0,91v29.789l44.163-4.167Z" transform="translate(0 -90.291)"/><path class="b" d="M442.674,366.107a.709.709,0,0,1-.709.709h-2.128L437,364.378l2.837-2.438.935.621A4.255,4.255,0,0,1,442.674,366.107Z" transform="translate(-395.674 -335.609)"/><path class="b" d="M28.006,248.5H18.994L1.9,259.849A4.255,4.255,0,0,0,0,263.394a.709.709,0,0,0,.709.709H44.163v-4.876Z" transform="translate(0 -232.896)"/><path class="c" d="M441.965,83.5a.709.709,0,0,1,.709.709,4.255,4.255,0,0,1-1.9,3.545l-.935.621L437,85.938l2.837-2.438Z" transform="translate(-395.674 -83.5)"/><path class="c" d="M44.163,83.5v4.876L25.854,100.533a4.257,4.257,0,0,1-4.708,0L1.9,87.755A4.255,4.255,0,0,1,0,84.209.709.709,0,0,1,.709,83.5Z" transform="translate(0 -83.5)"/></g></svg>