<svg xmlns="http://www.w3.org/2000/svg" width="37.115" height="51" viewBox="0 0 37.115 51"><defs><style>.a{fill:#414141;}</style></defs><path class="a" d="M257.607,255.87h-3.2v-2.634c5.068-4.7,7.442-9.549,7.054-14.421a16.245,16.245,0,0,0-4.367-9.38,21.9,21.9,0,0,0-3.887-3.474.579.579,0,0,0-.284-.093,6.614,6.614,0,0,0-9.511-1.652v-2.136a.572.572,0,0,0-.17-.406,5.045,5.045,0,0,1-1.622-4.176,1.7,1.7,0,0,0,1.213-.533c.945-1.021.462-3.1.4-3.33a.572.572,0,0,0-.45-.423,44.119,44.119,0,0,0-5.161-.363h-.02a44.111,44.111,0,0,0-5.16.363.568.568,0,0,0-.45.423c-.059.233-.543,2.309.4,3.33a1.7,1.7,0,0,0,1.213.533,5.052,5.052,0,0,1-1.622,4.176.571.571,0,0,0-.169.406v10.8a.569.569,0,0,0,.121.352l1.451,1.854v4.6a2.52,2.52,0,0,0,.659,1.806,4.23,4.23,0,0,0,3.27,1.125.552.552,0,0,1,.589,0,4.233,4.233,0,0,0,3.27-1.125,2.527,2.527,0,0,0,.66-1.806v-4.6l.781-1a6.614,6.614,0,0,0,7.243,1.554c.079.161.16.325.246.489,1.257,2.388,1.575,4.444.95,6.11a5.264,5.264,0,0,1-2.681,2.793H225.172a.572.572,0,0,0-.572.572v3.456a.572.572,0,0,0,.572.572h22.756v.821h-4.77a.571.571,0,0,0-.571.571v4.847H228.705a3.99,3.99,0,1,0,0,7.977h28.9a3.99,3.99,0,1,0,0-7.977Zm-23.07-19.592H240.7v1.606h-6.161Zm5.783,4.466a3.264,3.264,0,0,1-2.407.733.567.567,0,0,0-.3.085.561.561,0,0,0-.294-.085,3.268,3.268,0,0,1-2.408-.733,1.4,1.4,0,0,1-.382-.975c0-.019,0-.037,0-.057v-.685H240.7v.685a.355.355,0,0,0,0,.05A1.389,1.389,0,0,1,240.32,240.744Zm7.076-12.87a1.627,1.627,0,1,1-1.627,1.627A1.628,1.628,0,0,1,247.4,227.874Z" transform="translate(-224.6 -212.847)"/></svg>