<svg xmlns="http://www.w3.org/2000/svg" width="39.1" height="51" viewBox="0 0 39.1 51"><defs><style>.a{fill:#454545;}</style></defs><g transform="translate(-307 -593)"><g transform="translate(307 593)"><path class="a" d="M47.576,46.115l-4.2-6.987A3.788,3.788,0,0,0,41.3,37.5V20.25a6.339,6.339,0,0,0-6.315-6.35H29.4V12.2h2.55A2.55,2.55,0,0,0,34.5,9.65V4.55A2.55,2.55,0,0,0,31.95,2H18.35A2.55,2.55,0,0,0,15.8,4.55v5.1a2.55,2.55,0,0,0,2.55,2.55H20.9v1.7H15.315A6.339,6.339,0,0,0,9,20.25v29.7A3.047,3.047,0,0,0,12.035,53H38.264a3.036,3.036,0,0,0,3-2.66,3.94,3.94,0,0,0,4.9.892h0a3.72,3.72,0,0,0,1.813-2.3,3.611,3.611,0,0,0-.4-2.815ZM41.919,40l1.646,2.74L39.855,44.8l-1.674-2.79a1.921,1.921,0,0,1-.215-1.5,2.032,2.032,0,0,1,1-1.255,2.241,2.241,0,0,1,1.088-.281A2.172,2.172,0,0,1,41.919,40ZM18.35,10.5a.85.85,0,0,1-.85-.85V4.55a.85.85,0,0,1,.85-.85h13.6a.85.85,0,0,1,.85.85v5.1a.85.85,0,0,1-.85.85Zm4.25,1.7h5.1v1.7H22.6ZM38.264,51.3H12.035A1.344,1.344,0,0,1,10.7,49.95v-4.6h5.707a.85.85,0,0,0,0-1.7H10.7V23.25H29.521a.85.85,0,1,0,0-1.7H10.7v-1.3a4.638,4.638,0,0,1,4.615-4.65H34.985A4.638,4.638,0,0,1,39.6,20.25v1.3H35.4a.85.85,0,1,0,0,1.7h4.2V37.3a3.91,3.91,0,0,0-1.463.464,3.72,3.72,0,0,0-1.813,2.3,3.611,3.611,0,0,0,.4,2.815l.46.765h-16.4a.85.85,0,1,0,0,1.7H38.2l1.4,2.32v2.28a1.344,1.344,0,0,1-1.335,1.35Zm8.069-2.8a2.035,2.035,0,0,1-1,1.255A2.215,2.215,0,0,1,42.38,49l-1.646-2.74,3.71-2.06,1.677,2.79a1.921,1.921,0,0,1,.212,1.5Z" transform="translate(-9 -2)"/><rect class="a" width="1.7" height="4.25" transform="translate(15.3 2.975)"/><rect class="a" width="1.7" height="4.25" transform="translate(11.05 2.975)"/><rect class="a" width="1.7" height="4.25" transform="translate(19.55 2.975)"/><path class="a" d="M24.967,40V43.73a.17.17,0,0,0,.17.17H28.77a.17.17,0,0,0,.17-.17V40a.068.068,0,0,1,.068-.068H32.73a.17.17,0,0,0,.17-.17V36.134a.17.17,0,0,0-.17-.17H29a.068.068,0,0,1-.068-.068V32.17a.17.17,0,0,0-.17-.17H25.134a.17.17,0,0,0-.17.17V35.9a.068.068,0,0,1-.068.068H21.17a.17.17,0,0,0-.17.17v3.633a.17.17,0,0,0,.17.17H24.9A.068.068,0,0,1,24.967,40Z" transform="translate(-10.8 -6.5)"/></g></g></svg>