<svg xmlns="http://www.w3.org/2000/svg" width="49.295" height="54.963" viewBox="0 0 49.295 54.963"><defs><style>.a{fill:#454545;}</style></defs><g transform="translate(-9.641 -5)"><path class="a" d="M25.91,78.959H42.666c8.985,0,16.27.023,16.27-8.964a16.268,16.268,0,0,0-9.907-14.972c.027.055.059.106.085.163a7.875,7.875,0,0,1,.673,2.267,3.656,3.656,0,1,1-1.72-.065,6.266,6.266,0,0,0-1.713-3.24,16.179,16.179,0,0,0-2.191-.354C44.1,56.761,34.288,64.04,34.288,64.04s-9.81-7.28-9.875-10.246q-.786.071-1.549.217a6.051,6.051,0,0,0-2.125,3.215,2.031,2.031,0,0,1,.89,1.05,8.517,8.517,0,0,1,3.919,4.349,1.187,1.187,0,0,1,.007,1.009,13.715,13.715,0,0,1,1.015,4.87c0,2.353-.1,3.827-2.075,4.218a1,1,0,0,1-.7.289H22.275A1.017,1.017,0,0,1,21.26,72v-.023a1.018,1.018,0,0,1,1.015-.992h1.516a1,1,0,0,1,.424.095c.359-.076.419-.178.452-.236a6.264,6.264,0,0,0,.228-2.335,11.957,11.957,0,0,0-.908-4.278,1.189,1.189,0,0,1-.592-.572c-.994-2.079-2.339-3.371-3.509-3.371-1.2,0-2.606,1.394-3.6,3.551a1.2,1.2,0,0,1-.688.627,11.7,11.7,0,0,0-.818,4.042,6.294,6.294,0,0,0,.247,2.34c.035.056.105.168.511.243A1.016,1.016,0,0,1,16,70.979h1.517a1.016,1.016,0,0,1,1.013.955l0,.006V72a1.017,1.017,0,0,1-1.015,1.016H16a1.007,1.007,0,0,1-.675-.262,2.349,2.349,0,0,1-1.714-1.019,6.223,6.223,0,0,1-.5-3.226,13.477,13.477,0,0,1,.978-4.767,1.174,1.174,0,0,1,.036-.895,11.109,11.109,0,0,1,2.285-3.369,6.065,6.065,0,0,1,1.621-1.141,2.045,2.045,0,0,1,1.022-1.163,6.275,6.275,0,0,1,.849-2.3,16.273,16.273,0,0,0-10.26,15.12C9.641,78.981,16.925,78.959,25.91,78.959Zm12.653-9.084a.406.406,0,0,1,.427-.382h2.321V67.172a.406.406,0,0,1,.381-.427h2.291a.406.406,0,0,1,.381.427v2.321h2.321a.405.405,0,0,1,.427.382v2.29a.406.406,0,0,1-.427.382H44.365v2.321a.406.406,0,0,1-.381.427H41.693a.406.406,0,0,1-.381-.427V72.546H38.991a.406.406,0,0,1-.427-.382Z" transform="translate(0 -18.995)"/><path class="a" d="M29.758,20.093c.009.117.019.234.03.351.785,8.883,5.981,15.747,12.277,15.747s11.492-6.864,12.278-15.747c.011-.117.02-.233.03-.351.056-.385.093-.776.115-1.171.015-.271.026-.542.026-.817a14.035,14.035,0,0,0-.142-1.988A12.672,12.672,0,0,0,42.065,5,12.671,12.671,0,0,0,29.758,16.117a13.856,13.856,0,0,0-.142,1.988c0,.275.011.547.025.817C29.664,19.318,29.7,19.708,29.758,20.093Zm4.628-7.066a21.1,21.1,0,0,0,7.679,1.852,21.1,21.1,0,0,0,7.679-1.852c2.6,1.024,1.366,8.326,1.366,8.326a5.253,5.253,0,0,1,1.727-.809c-.714,7.76-5.263,13.743-10.772,13.743S32.006,28.3,31.291,20.545a5.236,5.236,0,0,1,1.727.809S31.789,14.052,34.386,13.028Z" transform="translate(-7.776 0)"/><circle class="a" cx="1.832" cy="1.832" r="1.832" transform="translate(46.966 40.151)"/></g></svg>