<svg xmlns="http://www.w3.org/2000/svg" width="31.52" height="31.52" viewBox="0 0 31.52 31.52"><defs><style>.a{fill:#095a86;}</style></defs><g transform="translate(-2 -2)"><path class="a" d="M14.608,2a12.609,12.609,0,0,1,9.961,20.338L26.4,24.171a3.151,3.151,0,0,1,3.044.817L32.6,28.139A3.152,3.152,0,1,1,28.139,32.6l-3.152-3.152a3.151,3.151,0,0,1-.817-3.044l-1.833-1.832A12.608,12.608,0,1,1,14.608,2Zm0,3.152a9.456,9.456,0,1,0,9.456,9.456A9.456,9.456,0,0,0,14.608,5.152Z" transform="translate(0 0)"/></g></svg>