<svg xmlns="http://www.w3.org/2000/svg" width="37.382" height="42" viewBox="0 0 37.382 42"><defs><style>.a{fill:#0a5b86;}</style></defs><g transform="translate(734.623 1053)"><path class="a" d="M16.262,36.347a3.772,3.772,0,1,0,3.772,6.534c.063-.036.121-.078.182-.117l9.091,5.249c0,.072-.011.143-.011.215a3.772,3.772,0,0,0,7.544,0c0-.073-.007-.144-.011-.216l9.091-5.249c.06.039.119.081.182.117a3.772,3.772,0,0,0,3.772-6.534c-.063-.036-.128-.066-.192-.1v-10.5c.064-.032.129-.058.192-.094A3.772,3.772,0,0,0,46.1,19.119c-.063.036-.121.078-.182.117l-9.091-5.249c0-.072.011-.143.011-.216a3.772,3.772,0,0,0-7.544,0c0,.073.007.144.011.216l-9.091,5.249c-.06-.039-.119-.081-.182-.117a3.772,3.772,0,0,0-3.772,6.534c.063.036.128.062.192.095v10.5C16.39,36.281,16.325,36.311,16.262,36.347Zm1.182,5.9a2.723,2.723,0,1,1,2.066-.272A2.7,2.7,0,0,1,17.444,42.243ZM33.068,50.95a2.722,2.722,0,1,1,2.722-2.722A2.725,2.725,0,0,1,33.068,50.95Zm17.277-9.975a2.721,2.721,0,1,1-1-3.719A2.7,2.7,0,0,1,50.345,40.975ZM47.984,19.663a2.738,2.738,0,0,1,.709.094,2.706,2.706,0,1,1-.709-.094ZM33.068,11.05a2.722,2.722,0,1,1-2.722,2.722A2.725,2.725,0,0,1,33.068,11.05ZM15.791,21.025a2.722,2.722,0,1,1,1,3.719A2.7,2.7,0,0,1,15.791,21.025ZM17.5,26.1a3.765,3.765,0,0,0,3.539-6.125l8.488-4.9a3.766,3.766,0,0,0,7.074,0l8.488,4.9A3.754,3.754,0,0,0,48.632,26.1V35.9a3.766,3.766,0,0,0-3.539,6.127l-8.488,4.9a3.766,3.766,0,0,0-7.074,0l-8.488-4.9A3.767,3.767,0,0,0,17.5,35.9Z" transform="translate(-749 -1063)"/><path class="a" d="M32.46,45.425h4.9v4.9a.525.525,0,0,0,.525.525h7.077a.525.525,0,0,0,.525-.525v-4.9h4.9A.525.525,0,0,0,50.9,44.9V37.822a.525.525,0,0,0-.525-.525h-4.9V32.4a.525.525,0,0,0-.525-.525H37.88a.525.525,0,0,0-.525.525v4.9h-4.9a.525.525,0,0,0-.525.525V44.9A.525.525,0,0,0,32.46,45.425Zm.525-7.077h4.9a.525.525,0,0,0,.525-.525v-4.9h6.027v4.9a.525.525,0,0,0,.525.525h4.9v6.027h-4.9a.525.525,0,0,0-.525.525v4.9H38.405V44.9a.525.525,0,0,0-.525-.525h-4.9Z" transform="translate(-757.34 -1073.391)"/></g></svg>