<svg xmlns="http://www.w3.org/2000/svg" width="48.887" height="54.963" viewBox="0 0 48.887 54.963"><defs><style>.a{fill:#454545;}</style></defs><g transform="translate(-593.299 -577.5)"><g transform="translate(593.299 577.5)"><g transform="translate(0)"><path class="a" d="M65.288,2.533A23.756,23.756,0,0,0,54.445,0C42.552,0,30.911,8.241,34.082,21.913l-2.09,2.529L28.3,31.2l3.594,2.855-.149,4.8,1.436,2.058s-1.71,6.423.9,7.335a22.406,22.406,0,0,0,7.185,1.07,26.258,26.258,0,0,0,3.432-.206l.286,5.844H69.238s-2.4-12.114,1.246-17.258S86.016,13.2,65.288,2.533Zm.918,45.82c.064,1.625.213,3.125.362,4.321h-19.4l-.179-3.667-.12-2.518-2.494.364a24.718,24.718,0,0,1-3.1.181,20.627,20.627,0,0,1-6.206-.865,6.216,6.216,0,0,1-.075-2.389,17.488,17.488,0,0,1,.405-2.271l.273-1.026-.608-.872-1-1.436.126-4.044.036-1.149-.9-.715L31.233,30.61,33.9,25.732l1.951-2.36.721-.873-.256-1.1a15.716,15.716,0,0,1-.148-6.947,13.124,13.124,0,0,1,2.577-5.388A17.219,17.219,0,0,1,45.5,4.082,22.949,22.949,0,0,1,54.445,2.29a21.471,21.471,0,0,1,9.795,2.279,23.091,23.091,0,0,1,7.186,5.456,14.415,14.415,0,0,1,3.041,5.905c.859,3.517.433,7.547-1.265,11.979a40.084,40.084,0,0,1-4.587,8.471C66.8,38.936,65.992,42.965,66.205,48.353Z" transform="translate(-28.299)"/><path class="a" d="M207.515,298.672a1.145,1.145,0,1,0,1.145,1.144A1.144,1.144,0,0,0,207.515,298.672Z" transform="translate(-187.254 -266.61)"/><path class="a" d="M164.844,341.328a1.146,1.146,0,1,0,1.145,1.146A1.146,1.146,0,0,0,164.844,341.328Z" transform="translate(-149.163 -304.687)"/><path class="a" d="M122.179,213.328a1.145,1.145,0,1,0,1.146,1.146A1.145,1.145,0,0,0,122.179,213.328Z" transform="translate(-111.079 -190.427)"/><path class="a" d="M79.515,256.375a1.145,1.145,0,1,0,1.145,1.146A1.144,1.144,0,0,0,79.515,256.375Z" transform="translate(-72.995 -228.853)"/><path class="a" d="M122.179,298.672a1.145,1.145,0,1,0,1.146,1.144A1.144,1.144,0,0,0,122.179,298.672Z" transform="translate(-111.079 -266.61)"/><path class="a" d="M164.844,256.375a1.145,1.145,0,1,0,1.145,1.146A1.145,1.145,0,0,0,164.844,256.375Z" transform="translate(-149.163 -228.853)"/><path class="a" d="M207.515,213.328a1.145,1.145,0,1,0,1.145,1.146A1.145,1.145,0,0,0,207.515,213.328Z" transform="translate(-187.254 -190.427)"/><path class="a" d="M207.515,384a1.145,1.145,0,1,0,1.145,1.146A1.144,1.144,0,0,0,207.515,384Z" transform="translate(-187.254 -342.778)"/><path class="a" d="M122.179,384a1.145,1.145,0,1,0,1.146,1.146A1.144,1.144,0,0,0,122.179,384Z" transform="translate(-111.079 -342.778)"/><path class="a" d="M250.178,341.328a1.146,1.146,0,1,0,1.146,1.146A1.145,1.145,0,0,0,250.178,341.328Z" transform="translate(-225.337 -304.687)"/><path class="a" d="M250.178,256.375a1.145,1.145,0,1,0,1.146,1.146A1.144,1.144,0,0,0,250.178,256.375Z" transform="translate(-225.337 -228.853)"/></g></g></g></svg>