<svg xmlns="http://www.w3.org/2000/svg" width="39" height="39" viewBox="0 0 39 39"><defs><style>.a{opacity:0.914;}.b{fill:#eceff1;}.c{fill:#4caf81;}.d{fill:#fafafa;}</style></defs><g class="a"><path class="b" d="M33.345,5.6A19.731,19.731,0,0,0,19.573,0,19.358,19.358,0,0,0,2.756,28.987L0,39l10.294-2.684a20.413,20.413,0,0,0,9.288,2.351c17.279,0,25.88-20.9,13.738-33Z" transform="translate(0)"/><path class="c" d="M18.278,34.117l-.01,0h-.026a16.373,16.373,0,0,1-8.8-2.59L3.349,33.109l1.633-5.923-.388-.609A16.036,16.036,0,0,1,2.13,18.029C2.13,3.741,19.591-3.4,29.695,6.695,39.775,16.689,32.7,34.117,18.278,34.117Z" transform="translate(1.331 1.228)"/><path class="d" d="M24.714,19.279,24.7,19.4c-.489-.244-2.871-1.409-3.315-1.57-1-.369-.715-.059-2.628,2.132-.284.317-.567.341-1.05.122a13.188,13.188,0,0,1-3.9-2.413,14.743,14.743,0,0,1-2.7-3.364c-.476-.822.52-.939,1.427-2.655a.893.893,0,0,0-.041-.851c-.122-.244-1.092-2.632-1.5-3.585-.39-.949-.791-.829-1.092-.829a2.419,2.419,0,0,0-2.223.559C5.054,9.829,5.716,12.8,7.96,15.965c4.41,5.772,6.76,6.835,11.056,8.31a6.723,6.723,0,0,0,3.055.2c.933-.148,2.871-1.172,3.276-2.317a4.022,4.022,0,0,0,.292-2.316c-.12-.219-.439-.341-.926-.561Z" transform="translate(3.735 3.97)"/></g></svg>