<svg xmlns="http://www.w3.org/2000/svg" width="45.204" height="53.963" viewBox="0 0 45.204 53.963"><defs><style>.a{fill:#414141;}</style></defs><g transform="translate(-6173.208 325)"><g transform="translate(6173.208 -325)"><circle class="a" cx="5.793" cy="5.793" r="5.793" transform="translate(8.798 0)"/><path class="a" d="M45.417,35.4a9.756,9.756,0,0,0-6.247,2.215,11.444,11.444,0,0,1-1.931-5.4h.682a2.453,2.453,0,0,0,1.874-.966c1.136-.114,2.215-.227,3.294-.4l1.022-.17A2.6,2.6,0,0,0,43.2,25.57l-1.022.17a20.158,20.158,0,0,1-2.669.341,2.53,2.53,0,0,0-1.647-.682H34.512a2.31,2.31,0,0,0-1.647.682c-.738-.057-1.477-.114-2.215-.227a47.032,47.032,0,0,0-5.85-.341c-11.416,0-13.8,11.927-14.54,15.846a2.6,2.6,0,0,0,2.045,3.067,1.572,1.572,0,0,0,.511.057,2.608,2.608,0,0,0,2.556-2.1,21.133,21.133,0,0,1,3.237-8.576l-.057,10.109-1.59,19.31a2.905,2.905,0,1,0,5.793.454l1.533-18.572h1.136L26.958,63.68a2.867,2.867,0,0,0,2.9,2.669h.227a2.919,2.919,0,0,0,2.669-3.124L31.1,43.915l-.114-12.836c.568.057,1.136.114,1.7.114a2.365,2.365,0,0,0,1.874.966h.682a12.2,12.2,0,0,0,2.5,6.815,10.169,10.169,0,0,0-2.329,6.361,10,10,0,1,0,10-9.939Zm-10.848-5a.63.63,0,0,1-.625-.625v-2.1a.63.63,0,0,1,.625-.625H37.92a.63.63,0,0,1,.625.625v2.1a.63.63,0,0,1-.625.625ZM53.311,44.37H52a1.022,1.022,0,1,0,0,2.045h1.306a7.793,7.793,0,0,1-1.59,3.862l-.909-.909a1,1,0,0,0-1.42,1.42l.909.909a7.793,7.793,0,0,1-3.862,1.59V51.98a1.022,1.022,0,1,0-2.045,0v1.306a7.793,7.793,0,0,1-3.862-1.59l.909-.909a1,1,0,0,0-1.42-1.42l-.909.909a7.793,7.793,0,0,1-1.59-3.862h1.306a1.022,1.022,0,0,0,0-2.045H37.522a7.793,7.793,0,0,1,1.59-3.862l.909.909a1.08,1.08,0,0,0,.738.284,1.2,1.2,0,0,0,.738-.284.994.994,0,0,0,0-1.42l-.909-.909a7.793,7.793,0,0,1,3.862-1.59V38.8a1.022,1.022,0,0,0,2.045,0V37.5A7.954,7.954,0,0,1,53.311,44.37Z" transform="translate(-10.209 -12.394)"/><path class="a" d="M71.129,55.215a.966.966,0,0,0-.4-.057,1.931,1.931,0,1,0,1.931,1.931c0-.17-.057-.284-.057-.4l2.5-2.5a1,1,0,0,0-1.42-1.42Z" transform="translate(-35.523 -24.092)"/></g></g></svg>